<svg width="19" height="22" viewBox="0 0 19 22" fill="none" xmlns="http://www.w3.org/2000/svg">
<path d="M15.8126 2.66869C12.1953 -0.889564 6.33048 -0.889564 2.71317 2.66869C1.85433 3.50775 1.17189 4.51004 0.705955 5.61663C0.240021 6.72322 0 7.91178 0 9.11246C0 10.3131 0.240021 11.5017 0.705955 12.6083C1.17189 13.7149 1.85433 14.7172 2.71317 15.5562L9.26231 22L15.8126 15.5562C16.6714 14.7172 17.3539 13.7149 17.8198 12.6083C18.2858 11.5017 18.5258 10.3131 18.5258 9.11246C18.5258 7.91178 18.2858 6.72322 17.8198 5.61663C17.3539 4.51004 16.6714 3.50775 15.8126 2.66869ZM9.26231 12.1578C8.48883 12.1578 7.76282 11.8567 7.21513 11.3102C6.67294 10.7668 6.36843 10.0306 6.36843 9.26299C6.36843 8.4954 6.67294 7.75915 7.21513 7.21581C7.76166 6.66927 8.48883 6.36822 9.26231 6.36822C10.0358 6.36822 10.763 6.66927 11.3095 7.21581C11.8517 7.75915 12.1562 8.4954 12.1562 9.26299C12.1562 10.0306 11.8517 10.7668 11.3095 11.3102C10.763 11.8567 10.0358 12.1578 9.26231 12.1578Z" fill="#0852C1"/>
</svg>
