<svg width="25" height="27" viewBox="0 0 25 27" fill="none" xmlns="http://www.w3.org/2000/svg">
<path fill-rule="evenodd" clip-rule="evenodd" d="M16.6249 24.125C16.6251 24.8188 16.3631 25.487 15.8914 25.9958C15.4196 26.5045 14.773 26.8161 14.0812 26.8681L13.8749 26.875H11.1249C10.4311 26.8752 9.76288 26.6132 9.25416 26.1414C8.74544 25.6697 8.43382 25.0231 8.38179 24.3312L8.37491 24.125H16.6249ZM12.4999 0.75C14.9955 0.749959 17.3936 1.71923 19.1882 3.45335C20.9829 5.18748 22.0338 7.55087 22.1194 10.045L22.1249 10.375V15.5505L24.6302 20.561C24.7395 20.7796 24.7942 21.0215 24.7896 21.2659C24.785 21.5103 24.7213 21.7499 24.6038 21.9643C24.4864 22.1787 24.3187 22.3614 24.1152 22.4968C23.9117 22.6322 23.6784 22.7162 23.4353 22.7417L23.2772 22.75H1.72266C1.47814 22.7501 1.23724 22.6909 1.02062 22.5774C0.803992 22.464 0.618097 22.2997 0.478862 22.0987C0.339627 21.8977 0.251204 21.666 0.22117 21.4233C0.191135 21.1806 0.220386 20.9343 0.306414 20.7054L0.369664 20.561L2.87491 15.5505V10.375C2.87491 7.82229 3.88897 5.37413 5.69401 3.5691C7.49905 1.76406 9.9472 0.75 12.4999 0.75ZM12.4999 3.5C10.7283 3.5001 9.02507 4.18412 7.74547 5.40941C6.46587 6.6347 5.70868 8.30666 5.63179 10.0766L5.62491 10.375V15.5505C5.62493 15.8915 5.56152 16.2296 5.43791 16.5474L5.33479 16.7811L3.72604 20H21.2752L19.6664 16.7798C19.5138 16.4749 19.4192 16.1443 19.3873 15.8049L19.3749 15.5505V10.375C19.3749 8.55164 18.6506 6.80295 17.3613 5.51364C16.072 4.22433 14.3233 3.5 12.4999 3.5Z" fill="#777777"/>
</svg>
