<svg width="18" height="18" viewBox="0 0 18 18" fill="none" xmlns="http://www.w3.org/2000/svg">
<path d="M1 0C0.734784 0 0.48043 0.105357 0.292893 0.292893C0.105357 0.48043 0 0.734784 0 1C0 5.50868 1.79107 9.8327 4.97918 13.0208C8.1673 16.2089 12.4913 18 17 18C17.2652 18 17.5196 17.8946 17.7071 17.7071C17.8946 17.5196 18 17.2652 18 17V13.5C18 13.2348 17.8946 12.9804 17.7071 12.7929C17.5196 12.6054 17.2652 12.5 17 12.5C15.76 12.5 14.55 12.3 13.43 11.93C13.08 11.82 12.69 11.9 12.41 12.18L10.21 14.38C7.37543 12.9304 5.06961 10.6246 3.62 7.79L5.82 5.58C6.1 5.31 6.18 4.92 6.07 4.57C5.7 3.45 5.5 2.24 5.5 1C5.5 0.734784 5.39464 0.48043 5.20711 0.292893C5.01957 0.105357 4.76522 0 4.5 0M13 0V3H10V5H13V8H15V5H18V3H15V0" fill="#0852C1"/>
</svg>
