<svg width="15" height="15" viewBox="0 0 15 15" fill="none" xmlns="http://www.w3.org/2000/svg">
<path d="M7.5 0C3.35805 0 0 3.35805 0 7.5C0 11.6419 3.35805 15 7.5 15C11.6419 15 15 11.6419 15 7.5C15 3.35805 11.6419 0 7.5 0ZM10.9615 8.65385H7.5C7.34699 8.65385 7.20025 8.59306 7.09205 8.48487C6.98386 8.37668 6.92308 8.22993 6.92308 8.07692V2.88462C6.92308 2.73161 6.98386 2.58486 7.09205 2.47667C7.20025 2.36848 7.34699 2.30769 7.5 2.30769C7.65301 2.30769 7.79975 2.36848 7.90795 2.47667C8.01614 2.58486 8.07692 2.73161 8.07692 2.88462V7.5H10.9615C11.1145 7.5 11.2613 7.56078 11.3695 7.66898C11.4777 7.77717 11.5385 7.92391 11.5385 8.07692C11.5385 8.22993 11.4777 8.37668 11.3695 8.48487C11.2613 8.59306 11.1145 8.65385 10.9615 8.65385Z" fill="#0852C1"/>
</svg>
