
<svg width="10" height="15" viewBox="0 0 10 15" fill="none" xmlns="http://www.w3.org/2000/svg">
<path d="M10 4.82143C10 5.41306 9.55221 5.89286 9.00004 5.89286H7.8754C7.45917 7.84118 5.94955 9.34821 4.06931 9.60268L8.5785 13.0547C9.02817 13.3989 9.13223 14.0682 8.81139 14.5493C8.61881 14.8426 8.28445 15 7.97196 15C7.77078 15 7.5676 14.9351 7.39167 14.8007L0.391969 9.44354C0.0653577 9.14397 -0.0845423 8.68862 0.0482646 8.2433C0.180603 7.7712 0.565711 7.5 1.00038 7.5H3.50028C4.52273 7.5 5.40144 6.83705 5.7883 5.89286H1.00038C0.448216 5.89286 0.000422897 5.41306 0.000422897 4.82143C0.000422897 4.2298 0.448216 3.75 1.00038 3.75H5.78768C5.40019 2.8058 4.52211 2.14286 3.50028 2.14286H1.00038C0.448216 2.14286 0.000422897 1.66306 0.000422897 1.07143C0.000422897 0.479799 0.448216 0 1.00038 0H9.00004C9.55221 0 10 0.479799 10 1.07143C10 1.66306 9.55221 2.14286 9.00004 2.14286H7.23824C7.53939 2.62366 7.75291 3.16842 7.87697 3.75H9.00004C9.55314 3.75 10 4.22879 10 4.82143Z" fill="#474747"/>
</svg>
