<svg width="12" height="18" viewBox="0 0 12 18" fill="none" xmlns="http://www.w3.org/2000/svg">
<path d="M12 5.875C12 6.56523 11.4626 7.125 10.8 7.125H9.45039C8.95089 9.39805 7.13927 11.1562 4.88289 11.4531L10.2941 15.4805C10.8338 15.882 10.9586 16.6629 10.5736 17.2242C10.3425 17.5664 9.94127 17.75 9.56627 17.75C9.32485 17.75 9.08102 17.6743 8.86989 17.5175L0.469894 11.2675C0.0779442 10.918 -0.101943 10.3867 0.0574317 9.86719C0.216244 9.31641 0.678394 9 1.20002 9H4.20002C5.42702 9 6.48152 8.22656 6.94577 7.125H1.20002C0.537394 7.125 1.92168e-05 6.56523 1.92168e-05 5.875C1.92168e-05 5.18477 0.537394 4.625 1.20002 4.625H6.94502C6.48002 3.52344 5.42627 2.75 4.20002 2.75H1.20002C0.537394 2.75 1.92168e-05 2.19023 1.92168e-05 1.5C1.92168e-05 0.809766 0.537394 0.25 1.20002 0.25H10.8C11.4626 0.25 12 0.809766 12 1.5C12 2.19023 11.4626 2.75 10.8 2.75H8.68577C9.04716 3.31094 9.30339 3.94648 9.45227 4.625H10.8C11.4638 4.625 12 5.18359 12 5.875Z" fill="#2F9379"/>
</svg>
