<svg width="12" height="13" viewBox="0 0 12 13" fill="none" xmlns="http://www.w3.org/2000/svg">
<path d="M3.5 6C2.83696 6 2.20107 5.73661 1.73223 5.26777C1.26339 4.79893 1 4.16304 1 3.5V1.5C1 1.36739 1.05268 1.24021 1.14645 1.14645C1.24021 1.05268 1.36739 1 1.5 1H2C2.13261 1 2.25979 0.947322 2.35355 0.853553C2.44732 0.759785 2.5 0.632608 2.5 0.5C2.5 0.367392 2.44732 0.240215 2.35355 0.146447C2.25979 0.0526784 2.13261 0 2 0H1.5C1.10218 0 0.720644 0.158035 0.43934 0.43934C0.158035 0.720644 0 1.10218 0 1.5V3.5C0.00064271 4.06487 0.138386 4.62114 0.4014 5.12104C0.664414 5.62094 1.04484 6.04953 1.51 6.37C1.95691 6.76401 2.31935 7.2445 2.57544 7.78246C2.83153 8.32041 2.97596 8.90468 3 9.5C3 10.4283 3.36875 11.3185 4.02513 11.9749C4.6815 12.6313 5.57174 13 6.5 13C7.42826 13 8.3185 12.6313 8.97487 11.9749C9.63125 11.3185 10 10.4283 10 9.5V8.93C10.4713 8.8083 10.8821 8.51889 11.1553 8.116C11.4285 7.71311 11.5454 7.22441 11.4841 6.7415C11.4227 6.25859 11.1874 5.81463 10.8221 5.49284C10.4569 5.17104 9.98679 4.99351 9.5 4.99351C9.01321 4.99351 8.54314 5.17104 8.17788 5.49284C7.81263 5.81463 7.57728 6.25859 7.51594 6.7415C7.4546 7.22441 7.57149 7.71311 7.8447 8.116C8.1179 8.51889 8.52867 8.8083 9 8.93V9.5C9 10.163 8.73661 10.7989 8.26777 11.2678C7.79893 11.7366 7.16304 12 6.5 12C5.83696 12 5.20107 11.7366 4.73223 11.2678C4.26339 10.7989 4 10.163 4 9.5C4.02531 8.90395 4.1713 8.31923 4.42912 7.78123C4.68695 7.24322 5.05126 6.76313 5.5 6.37C5.96331 6.04842 6.34179 5.61934 6.60303 5.11951C6.86426 4.61968 7.00048 4.06398 7 3.5V1.5C7 1.10218 6.84196 0.720644 6.56066 0.43934C6.27936 0.158035 5.89782 0 5.5 0H5C4.86739 0 4.74021 0.0526784 4.64645 0.146447C4.55268 0.240215 4.5 0.367392 4.5 0.5C4.5 0.632608 4.55268 0.759785 4.64645 0.853553C4.74021 0.947322 4.86739 1 5 1H5.5C5.63261 1 5.75979 1.05268 5.85355 1.14645C5.94732 1.24021 6 1.36739 6 1.5V3.5C6 3.8283 5.93534 4.15339 5.8097 4.45671C5.68406 4.76002 5.49991 5.03562 5.26777 5.26777C5.03562 5.49991 4.76002 5.68406 4.45671 5.8097C4.15339 5.93534 3.8283 6 3.5 6ZM9.5 8C9.23478 8 8.98043 7.89464 8.79289 7.70711C8.60536 7.51957 8.5 7.26522 8.5 7C8.5 6.73478 8.60536 6.48043 8.79289 6.29289C8.98043 6.10536 9.23478 6 9.5 6C9.76522 6 10.0196 6.10536 10.2071 6.29289C10.3946 6.48043 10.5 6.73478 10.5 7C10.5 7.26522 10.3946 7.51957 10.2071 7.70711C10.0196 7.89464 9.76522 8 9.5 8Z" fill="white"/>
</svg>
