<svg width="12" height="13" viewBox="0 0 12 13" fill="none" xmlns="http://www.w3.org/2000/svg">
<path fill-rule="evenodd" clip-rule="evenodd" d="M0 1.02967C0 0.756582 0.105357 0.494682 0.292893 0.301582C0.48043 0.108482 0.734784 0 1 0H11C11.2652 0 11.5196 0.108482 11.7071 0.301582C11.8946 0.494682 12 0.756582 12 1.02967V2.46159C11.9999 2.82567 11.8594 3.17482 11.6093 3.43222L8 7.14863V12.2448C8.00002 12.3735 7.96808 12.5001 7.90721 12.6125C7.84634 12.725 7.75857 12.8195 7.65223 12.8872C7.54589 12.9549 7.42451 12.9935 7.29962 12.9992C7.17473 13.005 7.05048 12.9778 6.93867 12.9203L4.46067 11.6448C4.32225 11.5736 4.20583 11.464 4.12447 11.3285C4.0431 11.1929 4.00001 11.0367 4 10.8774V7.14863L0.390667 3.43222C0.140601 3.17482 7.55165e-05 2.82567 0 2.46159V1.02967Z" fill="#1A3578"/>
</svg>
