<svg width="18" height="20" viewBox="0 0 18 20" fill="none" xmlns="http://www.w3.org/2000/svg">
<path d="M8.85043 0C8.15238 0.013205 7.6511 0.140853 7.31847 0.369739L2.76008 2.663L0.225564 5.90218C-0.308512 6.67687 0.0709636 8.17343 1.73878 7.21387L3.56588 4.95142C5.8849 3.07235 10.6166 3.93464 8.37257 7.70686C7.27162 9.89008 7.78696 10.9553 9.20648 11.4042L9.85299 9.36188C10.9727 6.99379 13.0621 6.56683 12.9778 4.65651L18 4.99544L17.9532 0.0616231L8.85043 0ZM6.31591 4.55087C5.50074 4.53766 4.69962 4.85458 4.1187 5.31236L2.28691 7.57481C2.78819 7.94895 3.29416 7.74647 3.79544 7.2931C4.38574 7.57481 4.84486 7.13904 5.21965 6.26751C5.37425 5.67329 5.60381 5.25513 6.31591 4.55087ZM2.58674 8.77646C2.568 8.77646 2.54458 8.77646 2.52584 8.78086C2.37124 8.81167 2.18853 8.96573 2.06672 9.31786C1.94023 9.66999 1.91212 10.1718 2.02456 10.7088C2.137 11.2414 2.37124 11.6948 2.63359 11.9765C2.88658 12.2538 3.12082 12.333 3.27542 12.3022C3.43471 12.2758 3.61273 12.1173 3.73454 11.7696C3.86103 11.4174 3.89383 10.9113 3.78139 10.3787C3.66427 9.84166 3.43002 9.38829 3.17235 9.11098C2.94748 8.86449 2.74134 8.77646 2.58674 8.77646ZM6.45645 13.4774C6.08635 13.4818 5.62255 13.5919 5.16811 13.7987C4.64809 14.0408 4.24051 14.3754 4.02032 14.6835C3.80013 14.9872 3.78139 15.2161 3.85166 15.3525C3.92193 15.4846 4.12807 15.6122 4.5216 15.6298C4.91513 15.6518 5.44452 15.5506 5.96454 15.3085C6.48456 15.0664 6.89215 14.7363 7.11234 14.4282C7.33253 14.1245 7.35127 13.8912 7.28099 13.7591C7.21072 13.6227 7.00459 13.4994 6.61106 13.4818C6.55952 13.4774 6.51267 13.4774 6.45645 13.4774ZM1.88401 17.6854C1.66382 17.6898 1.46237 17.7206 1.28435 17.769C0.886132 17.8791 0.656573 18.0772 0.581615 18.3104C0.501972 18.5481 0.581615 18.8298 0.848654 19.1335C1.12038 19.4329 1.57481 19.719 2.137 19.8774C2.6945 20.0359 3.23794 20.0315 3.64084 19.917C4.04374 19.807 4.2733 19.6089 4.34826 19.3756C4.42322 19.1379 4.34826 18.8562 4.07654 18.5525C3.8095 18.2532 3.35506 17.9671 2.79288 17.8087C2.47431 17.7206 2.1651 17.681 1.88401 17.6854Z" fill="white"/>
</svg>
