<?xml version="1.0" standalone="no"?>
<!DOCTYPE svg PUBLIC "-//W3C//DTD SVG 20010904//EN"
 "http://www.w3.org/TR/2001/REC-SVG-20010904/DTD/svg10.dtd">
<svg version="1.0" xmlns="http://www.w3.org/2000/svg"
 width="256.000000pt" height="256.000000pt" viewBox="0 0 256.000000 256.000000"
 preserveAspectRatio="xMidYMid meet">

<g transform="translate(0.000000,256.000000) scale(0.100000,-0.100000)"
fill="#000000" stroke="none">
<path d="M2310 2520 l0 -40 40 0 c22 0 40 -3 40 -7 -1 -8 -237 -198 -268 -217
-10 -6 -31 8 -76 53 l-61 61 -95 -95 c-93 -93 -96 -96 -132 -90 -47 8 -104
-18 -130 -59 -15 -24 -18 -42 -14 -80 l5 -48 -102 -114 c-101 -113 -130 -132
-154 -101 -6 6 -45 105 -88 220 l-78 207 23 43 c39 74 7 150 -76 177 -68 23
-154 -46 -154 -122 0 -21 -25 -40 -167 -127 -143 -88 -170 -101 -186 -91 -28
17 -93 15 -122 -4 -14 -9 -32 -27 -41 -41 -16 -24 -20 -25 -123 -25 l-106 0
-28 35 c-48 60 -124 66 -177 13 -102 -101 24 -263 147 -188 17 10 37 28 43 39
10 19 20 21 120 21 106 0 110 -1 126 -26 64 -97 224 -51 224 64 0 28 11 37
165 132 l166 102 43 -13 44 -13 81 -217 82 -218 -21 -33 c-37 -61 -19 -136 40
-172 92 -54 209 34 180 135 -8 28 -3 36 97 147 104 115 107 117 145 114 78 -7
146 68 133 146 -6 35 -3 40 60 102 l65 64 59 -58 c35 -34 65 -56 73 -53 7 3
92 69 188 146 l175 141 3 -60 3 -60 39 0 40 0 0 125 0 125 -125 0 -125 0 0
-40z m-1160 -189 c7 -15 5 -24 -8 -41 -32 -40 -85 -4 -62 41 14 25 56 25 70 0z
m621 -252 c7 -14 5 -23 -12 -40 -18 -18 -23 -19 -42 -6 -29 19 -31 33 -8 56
23 23 46 19 62 -10z m-1613 -90 c4 -31 -20 -53 -47 -44 -45 14 -30 79 17 73
21 -2 28 -9 30 -29z m452 16 c15 -18 10 -45 -12 -59 -33 -20 -69 20 -54 60 7
18 50 18 66 -1z m788 -343 c7 -50 -49 -72 -70 -27 -14 32 5 57 41 53 18 -2 27
-10 29 -26z"/>
<path d="M545 1347 c-115 -39 -208 -120 -259 -226 -29 -61 -31 -74 -31 -171 0
-97 2 -110 32 -172 41 -88 113 -160 201 -201 62 -30 75 -32 173 -32 101 0 108
2 177 36 l72 35 0 -37 c0 -67 21 -142 63 -229 56 -115 168 -229 278 -283 182
-89 371 -88 558 4 259 128 394 436 315 719 -61 214 -251 389 -474 436 -85 18
-216 14 -291 -10 -77 -24 -182 -82 -236 -130 -55 -49 -63 -54 -63 -32 0 7 -16
45 -35 83 -43 86 -103 144 -193 186 -57 27 -81 32 -157 34 -55 2 -105 -2 -130
-10z m250 -101 c72 -32 119 -78 154 -147 41 -82 49 -154 23 -205 -11 -22 -27
-65 -36 -95 -33 -111 -176 -191 -312 -174 -269 33 -385 364 -195 554 98 98
240 124 366 67z m870 -108 c173 -44 325 -195 379 -377 25 -85 21 -217 -9 -307
-32 -96 -64 -145 -142 -221 -259 -251 -683 -174 -844 152 -98 200 -67 427 82
589 140 154 336 214 534 164z"/>
<path d="M587 1186 c-146 -54 -214 -208 -151 -341 l16 -34 34 22 c27 17 33 26
27 42 -4 11 -7 47 -7 80 -1 71 23 113 80 140 36 17 115 18 154 1 10 -4 22 5
37 28 l22 34 -35 17 c-49 23 -131 28 -177 11z"/>
<path d="M832 1064 c-28 -22 -30 -28 -21 -46 18 -33 14 -113 -7 -149 -40 -67
-108 -94 -187 -74 -47 12 -48 12 -72 -18 -23 -30 -23 -31 -4 -45 10 -7 44 -18
74 -25 147 -30 295 91 295 243 0 37 -26 126 -39 134 -4 3 -21 -7 -39 -20z"/>
<path d="M1395 1052 c-64 -22 -145 -69 -145 -84 0 -7 9 -22 21 -34 l20 -22 67
34 c37 18 82 35 100 38 32 5 32 5 32 -34 0 -40 0 -40 40 -40 l40 0 0 40 c0 22
1 40 3 40 2 0 27 -7 57 -16 128 -38 230 -146 259 -273 l9 -41 -39 0 c-39 0
-39 0 -39 -40 0 -39 1 -40 35 -40 32 0 35 -3 35 -29 0 -16 -16 -59 -35 -97
l-34 -69 21 -22 c31 -33 44 -29 74 22 179 307 -39 686 -394 685 -46 -1 -97 -8
-127 -18z"/>
<path d="M1146 863 c-68 -104 -88 -270 -47 -385 49 -141 155 -245 300 -293 41
-13 76 -16 151 -13 92 3 104 7 176 43 43 22 79 45 80 50 2 6 -7 23 -20 39
l-24 29 -30 -22 c-37 -26 -85 -46 -129 -54 -33 -6 -33 -6 -33 33 0 40 0 40
-40 40 l-40 0 0 -41 c0 -41 0 -41 -32 -34 -141 29 -268 155 -292 288 l-7 37
41 0 40 0 0 40 0 40 -41 0 c-40 0 -41 0 -34 33 3 17 21 62 39 99 l33 66 -28
21 c-15 12 -31 21 -33 21 -3 0 -17 -17 -30 -37z"/>
<path d="M1490 705 l0 -125 80 0 80 0 0 40 0 40 -40 0 -40 0 0 85 0 85 -40 0
-40 0 0 -125z"/>
</g>
</svg>
