<svg width="19" height="25" viewBox="0 0 19 25" fill="none" xmlns="http://www.w3.org/2000/svg">
<path fill-rule="evenodd" clip-rule="evenodd" d="M16.4071 9.3742C16.4104 10.8809 15.9264 12.3482 15.0273 13.5572L9.37548 21.0935L3.72363 13.5572C3.06189 12.6632 2.62168 11.6249 2.43917 10.5277C2.25666 9.43044 2.33706 8.30556 2.67375 7.24544C3.01045 6.18532 3.59384 5.22019 4.376 4.42934C5.15817 3.63849 6.11679 3.04448 7.17313 2.6961C8.22947 2.34772 9.35338 2.2549 10.4526 2.42528C11.5517 2.59566 12.5948 3.02437 13.4961 3.6762C14.3974 4.32803 15.1312 5.18438 15.6373 6.17491C16.1433 7.16544 16.4071 8.26189 16.4071 9.3742ZM18.751 9.3742C18.751 11.4681 18.065 13.3994 16.9071 14.9589L10.8396 23.0468L9.37548 25L7.90978 23.0468L1.84385 14.9589C0.960497 13.7673 0.37248 12.3831 0.12811 10.9201C-0.11626 9.45704 -0.01001 7.9569 0.438131 6.54292C0.886272 5.12894 1.66351 3.84146 2.70599 2.78628C3.74847 1.7311 5.02644 0.938321 6.4349 0.47309C7.84335 0.00785802 9.34209 -0.116552 10.808 0.110083C12.2739 0.336717 13.665 0.907928 14.8672 1.77678C16.0694 2.64564 17.0483 3.78734 17.7235 5.10807C18.3986 6.42881 18.7508 7.8909 18.751 9.3742ZM9.37548 12.4994C10.2043 12.4994 10.9992 12.1701 11.5853 11.584C12.1714 10.9979 12.5006 10.203 12.5006 9.3742C12.5006 8.54535 12.1714 7.75046 11.5853 7.16438C10.9992 6.57829 10.2043 6.24904 9.37548 6.24904C8.54664 6.24904 7.75174 6.57829 7.16566 7.16438C6.57958 7.75046 6.25032 8.54535 6.25032 9.3742C6.25032 10.203 6.57958 10.9979 7.16566 11.584C7.75174 12.1701 8.54664 12.4994 9.37548 12.4994Z" fill="white"/>
</svg>
