<svg width="5" height="27" viewBox="0 0 5 27" fill="none" xmlns="http://www.w3.org/2000/svg">
<path d="M0 2.2C1.22958e-08 2.78348 0.231785 3.34305 0.644365 3.75563C1.05695 4.16821 1.61652 4.4 2.2 4.4C2.78348 4.4 3.34305 4.16821 3.75563 3.75563C4.16821 3.34305 4.4 2.78348 4.4 2.2C4.4 1.61652 4.16821 1.05695 3.75563 0.644365C3.34305 0.231785 2.78348 0 2.2 0C1.61652 0 1.05695 0.231785 0.644365 0.644365C0.231785 1.05695 0 1.61652 0 2.2Z" fill="#0852C1"/>
<path d="M0 13.2C1.22958e-08 13.7835 0.231785 14.3431 0.644365 14.7556C1.05695 15.1682 1.61652 15.4 2.2 15.4C2.78348 15.4 3.34305 15.1682 3.75563 14.7556C4.16821 14.3431 4.4 13.7835 4.4 13.2C4.4 12.6165 4.16821 12.0569 3.75563 11.6444C3.34305 11.2318 2.78348 11 2.2 11C1.61652 11 1.05695 11.2318 0.644365 11.6444C0.231785 12.0569 0 12.6165 0 13.2Z" fill="#0852C1"/>
<path d="M0 24.2C1.22958e-08 24.7835 0.231785 25.3431 0.644365 25.7556C1.05695 26.1682 1.61652 26.4 2.2 26.4C2.78348 26.4 3.34305 26.1682 3.75563 25.7556C4.16821 25.3431 4.4 24.7835 4.4 24.2C4.4 23.6165 4.16821 23.0569 3.75563 22.6444C3.34305 22.2318 2.78348 22 2.2 22C1.61652 22 1.05695 22.2318 0.644365 22.6444C0.231785 23.0569 0 23.6165 0 24.2Z" fill="#0852C1"/>
</svg>
