<svg width="12" height="12" viewBox="0 0 12 12" fill="none" xmlns="http://www.w3.org/2000/svg">
<path d="M8.565 9.075L8.31 8.82C8.22 8.73 8.1126 8.685 7.9878 8.685C7.863 8.685 7.7554 8.73 7.665 8.82C7.575 8.91 7.53 9.015 7.53 9.135C7.53 9.255 7.575 9.36 7.665 9.45L8.25 10.035C8.34 10.125 8.445 10.17 8.565 10.17C8.685 10.17 8.79 10.125 8.88 10.035L10.335 8.61C10.425 8.52 10.47 8.4124 10.47 8.2872C10.47 8.162 10.425 8.0546 10.335 7.965C10.245 7.875 10.1374 7.83 10.0122 7.83C9.887 7.83 9.7796 7.875 9.69 7.965L8.565 9.075ZM2.4 3.6H8.4C8.57 3.6 8.7126 3.5424 8.8278 3.4272C8.943 3.312 9.0004 3.1696 9 3C9 2.83 8.9424 2.6874 8.8272 2.5722C8.712 2.457 8.5696 2.3996 8.4 2.4H2.4C2.23 2.4 2.0874 2.4576 1.9722 2.5728C1.857 2.688 1.7996 2.8304 1.8 3C1.8 3.17 1.8576 3.3126 1.9728 3.4278C2.088 3.543 2.2304 3.6004 2.4 3.6ZM9 12C8.17 12 7.4624 11.7074 6.8772 11.1222C6.292 10.537 5.9996 9.8296 6 9C6 8.17 6.2926 7.4624 6.8778 6.8772C7.463 6.292 8.1704 5.9996 9 6C9.83 6 10.5376 6.2926 11.1228 6.8778C11.708 7.463 12.0004 8.1704 12 9C12 9.83 11.7074 10.5376 11.1222 11.1228C10.537 11.708 9.8296 12.0004 9 12ZM0 11.325V1.2C0 0.870001 0.1176 0.587401 0.3528 0.352201C0.588 0.117001 0.8704 -0.000398981 1.2 1.01868e-06H9.6C9.93 1.01868e-06 10.2126 0.117601 10.4478 0.352801C10.683 0.588001 10.8004 0.870401 10.8 1.2V5.205C10.61 5.115 10.415 5.04 10.215 4.98C10.015 4.92 9.81 4.875 9.6 4.845V1.2H1.2V9.63H4.845C4.895 9.94 4.9726 10.235 5.0778 10.515C5.183 10.795 5.3204 11.06 5.49 11.31C5.44 11.32 5.3874 11.3124 5.3322 11.2872C5.277 11.262 5.2296 11.2296 5.19 11.19L4.71 10.71C4.65 10.65 4.58 10.62 4.5 10.62C4.42 10.62 4.35 10.65 4.29 10.71L3.81 11.19C3.75 11.25 3.68 11.28 3.6 11.28C3.52 11.28 3.45 11.25 3.39 11.19L2.91 10.71C2.85 10.65 2.78 10.62 2.7 10.62C2.62 10.62 2.55 10.65 2.49 10.71L2.01 11.19C1.95 11.25 1.88 11.28 1.8 11.28C1.72 11.28 1.65 11.25 1.59 11.19L1.11 10.71C1.05 10.65 0.98 10.62 0.9 10.62C0.82 10.62 0.75 10.65 0.69 10.71L0.21 11.19L0 11.325ZM2.4 8.4H4.845C4.875 8.19 4.92 7.985 4.98 7.785C5.04 7.585 5.115 7.39 5.205 7.2H2.4C2.23 7.2 2.0874 7.2576 1.9722 7.3728C1.857 7.488 1.7996 7.6304 1.8 7.8C1.8 7.97 1.8576 8.1126 1.9728 8.2278C2.088 8.343 2.2304 8.4004 2.4 8.4ZM2.4 6H6.06C6.44 5.63 6.8826 5.3374 7.3878 5.1222C7.893 4.907 8.4304 4.7996 9 4.8H2.4C2.23 4.8 2.0874 4.8576 1.9722 4.9728C1.857 5.088 1.7996 5.2304 1.8 5.4C1.8 5.57 1.8576 5.7126 1.9728 5.8278C2.088 5.943 2.2304 6.0004 2.4 6Z" fill="white"/>
</svg>
