<svg width="11" height="12" viewBox="0 0 11 12" fill="none" xmlns="http://www.w3.org/2000/svg">
<path d="M7.56844 7.50004L5.30769 9.73572L3.04695 7.50004C1.35299 7.57269 0 8.94378 0 10.6357C0 10.9975 0.145318 11.3446 0.403984 11.6004C0.662651 11.8563 1.01348 12 1.37929 12H9.2361C9.60191 12 9.95273 11.8563 10.2114 11.6004C10.4701 11.3446 10.6154 10.9975 10.6154 10.6357C10.6154 8.94378 9.2624 7.57269 7.56844 7.50004ZM5.30769 7.12504C6.11209 7.12504 6.88353 6.80897 7.45232 6.24637C8.02112 5.68376 8.34066 4.92071 8.34066 4.12507V1.54274C8.34085 1.38993 8.29384 1.24071 8.20593 1.11505C8.11802 0.989396 7.9934 0.893298 7.84875 0.839623L5.84012 0.0954888C5.49684 -0.0318296 5.11855 -0.0318296 4.77526 0.0954888L2.76663 0.840561C2.62214 0.894179 2.49763 0.990134 2.40973 1.11561C2.32183 1.24108 2.27473 1.39009 2.27473 1.54274V4.12507C2.27473 4.92071 2.59427 5.68376 3.16306 6.24637C3.73185 6.80897 4.5033 7.12504 5.30769 7.12504ZM4.35989 1.67985C4.35989 1.64877 4.37237 1.61896 4.39459 1.59699C4.41681 1.57501 4.44694 1.56266 4.47837 1.56266H4.99184V1.05478C4.99184 1.0237 5.00432 0.993891 5.02654 0.971914C5.04876 0.949938 5.07889 0.937591 5.11031 0.937591H5.50507C5.53649 0.937591 5.56663 0.949938 5.58885 0.971914C5.61107 0.993891 5.62355 1.0237 5.62355 1.05478V1.56266H6.13702C6.16844 1.56266 6.19858 1.57501 6.22079 1.59699C6.24301 1.61896 6.25549 1.64877 6.25549 1.67985V2.07032C6.25549 2.1014 6.24301 2.1312 6.22079 2.15318C6.19858 2.17516 6.16844 2.1875 6.13702 2.1875H5.62355V2.69539C5.62355 2.72647 5.61107 2.75628 5.58885 2.77825C5.56663 2.80023 5.53649 2.81258 5.50507 2.81258H5.11031C5.07889 2.81258 5.04876 2.80023 5.02654 2.77825C5.00432 2.75628 4.99184 2.72647 4.99184 2.69539V2.1875H4.47837C4.44694 2.1875 4.41681 2.17516 4.39459 2.15318C4.37237 2.1312 4.35989 2.1014 4.35989 2.07032V1.67985ZM3.41209 3.75007H7.2033V4.12507C7.2033 4.62234 7.00358 5.09925 6.64809 5.45088C6.29259 5.80251 5.81044 6.00005 5.30769 6.00005C4.80495 6.00005 4.32279 5.80251 3.9673 5.45088C3.6118 5.09925 3.41209 4.62234 3.41209 4.12507V3.75007Z" fill="white"/>
</svg>
