<svg width="11" height="12" viewBox="0 0 11 12" fill="none" xmlns="http://www.w3.org/2000/svg">
<path d="M2.11298 2.27643C2.02986 2.34294 1.96275 2.42729 1.91664 2.52325C1.87052 2.6192 1.84658 2.7243 1.84658 2.83076C1.84658 2.93722 1.87052 3.04232 1.91664 3.13827C1.96275 3.23422 2.02986 3.31858 2.11298 3.38509L4.76335 5.50538C5.22834 5.8769 5.91696 5.54679 5.91696 4.95105V3.17566C6.59288 3.29028 7.22121 3.59796 7.72621 4.0616C8.23121 4.52525 8.59133 5.12507 8.76314 5.78875H8.28336C8.048 5.78875 7.82229 5.88225 7.65587 6.04867C7.48945 6.21508 7.39596 6.4408 7.39596 6.67615C7.39596 6.9115 7.48945 7.13722 7.65587 7.30364C7.82229 7.47006 8.048 7.56355 8.28336 7.56355H8.76314C8.60412 8.17748 8.28379 8.7377 7.83535 9.18614C7.38691 9.63457 6.82669 9.95491 6.21276 10.1139V9.63414C6.21276 9.39879 6.11927 9.17308 5.95285 9.00666C5.78643 8.84024 5.56072 8.74675 5.32536 8.74675C5.09001 8.74675 4.8643 8.84024 4.69788 9.00666C4.53146 9.17308 4.43797 9.39879 4.43797 9.63414V10.1139C3.82404 9.95491 3.26382 9.63457 2.81538 9.18614C2.36694 8.7377 2.04661 8.17748 1.88758 7.56355H2.36737C2.60272 7.56355 2.82844 7.47006 2.99486 7.30364C3.16127 7.13722 3.25477 6.9115 3.25477 6.67615C3.25477 6.4408 3.16127 6.21508 2.99486 6.04867C2.82844 5.88225 2.60272 5.78875 2.36737 5.78875H1.88758C1.89232 5.76864 1.89764 5.74911 1.90356 5.72959C1.96632 5.50271 1.93638 5.26019 1.82033 5.05539C1.70428 4.85058 1.51162 4.70026 1.28474 4.6375C1.05786 4.57474 0.815346 4.60468 0.610539 4.72073C0.405732 4.83678 0.255414 5.02943 0.192653 5.25631C-0.0976317 6.30589 -0.0591047 7.41925 0.303039 8.44625C0.665183 9.47325 1.33353 10.3645 2.21796 10.9999C3.10239 11.6352 4.16036 11.9841 5.24924 11.9995C6.33811 12.0148 7.40552 11.696 8.30753 11.0858C9.20954 10.4757 9.90277 9.60365 10.2938 8.58727C10.6847 7.5709 10.7547 6.45908 10.4941 5.40173C10.2336 4.34437 9.6551 3.39233 8.83666 2.67397C8.01821 1.95562 6.99918 1.5055 5.91696 1.3843V0.71106C5.91696 0.115912 5.22834 -0.214792 4.76335 0.156732L2.11298 2.27643Z" fill="white"/>
</svg>
