
<svg class="svg-icon" style="width: 1em; height: 1em;vertical-align: middle;fill: white;overflow: hidden;" viewBox="0 0 1024 1024" version="1.1" xmlns="http://www.w3.org/2000/svg"><path d="M284.171126 772.335453l253.131559 0 0-50.346603L284.171126 721.988851 284.171126 772.335453 284.171126 772.335453 284.171126 772.335453zM284.171126 596.157081l455.656742 0L739.827867 545.811485 284.171126 545.811485 284.171126 596.157081 284.171126 596.157081 284.171126 596.157081zM587.943294 17.276367 436.057713 17.276367l0 50.345596L587.943294 67.621963 587.943294 17.276367 587.943294 17.276367 587.943294 17.276367zM284.171126 419.978708l455.656742 0 0-50.345596L284.171126 369.633112 284.171126 419.978708 284.171126 419.978708 284.171126 419.978708zM891.681228 17.276367 739.827867 17.276367c0-0.001007-75.942287-4.531929-75.942287 50.345596 0 34.56389-21.325541 46.628226-41.378397 50.345596l-213.28562 0c-21.847101-2.706471-49.106137-13.466908-49.106137-50.345596 0-61.758486-75.943294-50.345596-75.943294-50.345596l0 0L132.317765 17.276367c-27.976935 0-50.639602 22.531774-50.639602 50.345596l0 906.031434c0 27.814829 22.662667 50.345596 50.639602 50.345596l506.230897 0 50.639602 0 25.303691 0 227.828874-226.523969 0-25.139571 0-50.346603L942.32083 67.62297C942.32083 39.80814 919.65917 17.276367 891.681228 17.276367L891.681228 17.276367 891.681228 17.276367zM689.189272 973.653397 689.189272 797.475025c0-13.889794 11.315224-25.139571 25.303691-25.139571l177.189272 0L689.189272 973.653397 689.189272 973.653397 689.189272 973.653397zM891.681228 721.989857 689.189272 721.989857c-27.976935 0-50.639602 22.531774-50.639602 50.346603l0 201.317944L157.622463 973.654404c-13.989475 0-25.303691-11.249777-25.303691-25.172798L132.318772 92.795768c0-13.890801 11.315224-25.172798 25.303691-25.172798l121.397507 0c16.011273 5.445162 30.161847 19.075183 30.488073 50.345596 0.553779 55.008418 75.943294 50.313376 75.943294 50.313376l253.098332 0c0-0.001007 75.942287 0.22856 75.942287-57.61823 0-28.661608 18.94429-39.454265 37.890594-43.041749l113.995994 0c13.988468 0 25.303691 11.281997 25.303691 25.172798L891.682235 721.989857 891.681228 721.989857 891.681228 721.989857z"  /></svg>