      <svg
        width="74"
        height="61"
        viewBox="0 0 74 61"
        fill="none"
        xmlns="http://www.w3.org/2000/svg"
      >
        <path
          fill-rule="evenodd"
          clip-rule="evenodd"
          d="M30.5819 44.0783H53.7267C57.3717 44.0783 60.5938 41.7096 61.6809 38.2304L67.6659 19.0783H20.699L22.2828 36.4996C22.673 40.7917 26.2719 44.0783 30.5819 44.0783ZM16.1364 14.9117H73.3334L65.658 39.4733C64.0271 44.6921 59.1942 48.245 53.7267 48.245H30.5819C24.1169 48.245 18.7185 43.315 18.1332 36.8767L16.1364 14.9117Z"
          fill="#264798"
        />
        <path
          fill-rule="evenodd"
          clip-rule="evenodd"
          d="M2.50002 0.328369C1.34944 0.328369 0.416687 1.26112 0.416687 2.4117C0.416687 3.56229 1.34944 4.49504 2.50002 4.49504H13.3734L16.2272 15.9102L18.1332 36.8767C18.7185 43.315 24.1169 48.245 30.5819 48.245H53.7267C59.1942 48.245 64.0271 44.6921 65.658 39.4734L73.3334 14.9117H20.2725L17.0211 1.90641C16.7893 0.978993 15.956 0.328369 15 0.328369H2.50002Z"
          fill="#264798"
        />
        <path
          d="M35.8334 54.4951C35.8334 57.9467 33.035 60.7451 29.5834 60.7451C26.1316 60.7451 23.3334 57.9467 23.3334 54.4951C23.3334 51.0434 26.1316 48.2451 29.5834 48.2451C33.035 48.2451 35.8334 51.0434 35.8334 54.4951Z"
          fill="#264798"
        />
        <path
          d="M60.8334 54.4951C60.8334 57.9467 58.035 60.7451 54.5834 60.7451C51.1317 60.7451 48.3334 57.9467 48.3334 54.4951C48.3334 51.0434 51.1317 48.2451 54.5834 48.2451C58.035 48.2451 60.8334 51.0434 60.8334 54.4951Z"
          fill="#264798"
        />
      </svg>