
<svg class="svg-icon" style="width: 1em;height: 1em;vertical-align: middle;fill: #3CB43C;overflow: hidden;" viewBox="0 0 1024 1024" version="1.1" xmlns="http://www.w3.org/2000/svg"><path d="M672 288c0-17.6-14.4-32-32-32H288c-17.6 0-32 14.4-32 32s14.4 32 32 32h352c17.6 0 32-14.4 32-32zM288 448c-17.6 0-32 14.4-32 32s14.4 32 32 32h160c17.6 0 32-14.4 32-32s-14.4-32-32-32H288zM827.596 617.475c-12.445-12.445-32.81-12.445-45.255 0L677.429 722.388l-50.107-50.107c-13.71-13.71-35.11-14.745-47.555-2.3s-11.41 33.845 2.3 47.555l69.356 69.356a31.806 31.806 0 0 0 3.124 3.633c12.445 12.445 32.81 12.445 45.255 0L827.596 662.73c12.445-12.445 12.445-32.81 0-45.255z"  /><path d="M224 864c-35.2 0-64-28.8-64-64V192c0-35.2 28.8-64 64-64h480c35.2 0 64 28.8 64 64v198.407a317.482 317.482 0 0 1 64 20.246V192c0-70.4-57.6-128-128-128H224c-70.4 0-128 57.6-128 128v608c0 70.4 57.6 128 128 128h251.505a321.192 321.192 0 0 1-48.685-64H224z"  /><path d="M704 448c-141.385 0-256 114.615-256 256s114.615 256 256 256 256-114.615 256-256-114.615-256-256-256z m0 448c-106.039 0-192-85.961-192-192s85.961-192 192-192 192 85.961 192 192-85.961 192-192 192z"  /></svg>