<svg width="8" height="14" viewBox="0 0 8 14" fill="none" xmlns="http://www.w3.org/2000/svg">
<path d="M3.28721 2.34183C3.59719 2.36611 3.90415 2.26644 4.14075 2.06468C4.37734 1.86293 4.52425 1.57557 4.54925 1.26564C4.57327 0.955454 4.47329 0.648403 4.27125 0.41182C4.06921 0.175237 3.7816 0.0284317 3.47148 0.00359771C3.16142 -0.0207282 2.85438 0.0790268 2.61782 0.280946C2.38127 0.482865 2.23454 0.770432 2.20989 1.08047C2.19778 1.23404 2.21605 1.3885 2.26364 1.53502C2.31123 1.68153 2.38721 1.81724 2.48725 1.93439C2.58729 2.05154 2.70943 2.14784 2.84668 2.21779C2.98394 2.28774 3.13363 2.32996 3.28721 2.34206V2.34183ZM3.60878 4.69266C3.78957 4.72742 3.95254 4.82422 4.06955 4.96635C4.18657 5.10847 4.25028 5.287 4.24969 5.47109C4.24963 5.68135 4.16608 5.88297 4.01741 6.03164C3.86874 6.18031 3.66712 6.26386 3.45687 6.26392H0.887844C0.805239 6.26394 0.723896 6.24364 0.650992 6.2048C0.578088 6.16596 0.515864 6.10977 0.469807 6.0412C0.42375 5.97262 0.395277 5.89377 0.3869 5.81159C0.378522 5.72941 0.390498 5.64643 0.42177 5.56997L0.699527 4.92165L3.79306 2.70588H2.3191C1.75303 2.69015 1.35527 2.88679 1.12717 3.33264C0.972564 3.63264 0.151429 5.46705 0.151429 5.46705C0.103401 5.58736 0.0855854 5.71761 0.0995411 5.8464C0.113497 5.97519 0.158798 6.09859 0.231483 6.20582C0.304167 6.31306 0.40202 6.40084 0.516481 6.4615C0.630943 6.52217 0.758526 6.55386 0.888069 6.55381H1.89145L1.5955 8.4999L0.0381686 13.0002C-0.0247989 13.191 -0.00940028 13.399 0.0809767 13.5784C0.171354 13.7578 0.329306 13.894 0.520086 13.957C0.710866 14.0199 0.918846 14.0045 1.09827 13.9141C1.2777 13.8238 1.41387 13.6658 1.47684 13.475L3.26765 8.39855C3.61687 8.96598 4.31194 9.98307 4.43014 10.1752C4.45734 10.4945 4.70745 13.3096 4.70745 13.3096C4.72543 13.5097 4.82207 13.6945 4.97615 13.8234C5.13023 13.9522 5.32916 14.0147 5.52926 13.9971C5.6284 13.9883 5.72483 13.9601 5.81306 13.9141C5.90128 13.8681 5.97956 13.8051 6.04341 13.7287C6.10726 13.6524 6.15543 13.5642 6.18517 13.4692C6.2149 13.3743 6.22561 13.2744 6.21669 13.1753L5.9223 9.86217C5.91231 9.74481 5.87457 9.63151 5.81219 9.5316L4.52475 7.44506L4.7297 4.82637C4.7297 4.82637 5.03465 5.86256 5.05734 5.93739C5.12274 6.15133 5.27016 6.30481 5.42139 6.42729C5.50994 6.49785 7.01265 7.52056 7.01265 7.52056C7.09625 7.55922 7.16457 7.59315 7.25423 7.59922C7.32345 7.60478 7.3931 7.59664 7.45918 7.57528C7.52525 7.55391 7.58647 7.51974 7.63934 7.4747C7.6922 7.42966 7.73567 7.37465 7.76726 7.3128C7.79885 7.25096 7.81795 7.18349 7.82345 7.11426C7.83032 7.02595 7.815 6.93732 7.77889 6.85643C7.74279 6.77555 7.68704 6.70497 7.61671 6.65111C7.61671 6.65111 6.11938 5.62301 6.05848 5.57829C6.01374 5.54242 5.97964 5.49502 5.95983 5.44121L5.36724 3.30679C5.27083 2.98387 4.94543 2.70611 4.53397 2.70611H4.35666L3.60856 4.69288L3.60878 4.69266Z" fill="white"/>
</svg>
