<svg xmlns="http://www.w3.org/2000/svg" viewBox="0 0 512 512" width="256" height="256"><g data-name="35 Sold Out" fill="#000000" class="color000 svgShape"><path d="M188.84 364.1h134.32v101.66a24.34 24.34 0 0 1-24.34 24.34h-85.64a24.34 24.34 0 0 1-24.34-24.34V364.1Z" fill="#D94B38" class="color000 svgShape"></path><ellipse cx="189.31" cy="119.88" rx="38.15" ry="44" fill="#D94B38" class="color000 svgShape"></ellipse><path d="M336.88 163.88a44 44 0 0 0 0-88h-3.16a1 1 0 0 0-1 1v86.02a1 1 0 0 0 1 1Z" fill="#D94B38" class="color000 svgShape"></path><ellipse cx="108.33" cy="266.93" rx="38.15" ry="44" fill="#D94B38" class="color000 svgShape"></ellipse><path d="M451.28 33.65H60.72A49.72 49.72 0 0 0 11 83.37v231a49.73 49.73 0 0 0 49.72 49.73h390.56A49.73 49.73 0 0 0 501 314.37v-231a49.72 49.72 0 0 0-49.72-49.72ZM253.16 69.88a6 6 0 1 1 12 0v92.45a1.55 1.55 0 0 0 1.55 1.55h30.45a6 6 0 0 1 0 12h-30.45a13.57 13.57 0 0 1-13.55-13.55ZM95.48 126a8.62 8.62 0 0 1-1.69 0 12 12 0 0 1-1.74-.28H92a31 31 0 1 1 26.2-52.21 6 6 0 0 1-8.7 8.27 19 19 0 1 0-16.06 32H93.74c.43 0 1.12 0 2.17.11h.33a31.05 31.05 0 0 1-3.67 61.88c-.65 0-1.31 0-2-.06a31 31 0 0 1-25.21-15.94 6 6 0 0 1 10.5-5.83 19 19 0 1 0 19.62-28Zm12.85 196.91c-27.65 0-50.14-25.12-50.14-56s22.49-56 50.14-56 50.15 25.12 50.15 56-22.48 56.02-50.15 56.02ZM236.92 290a33 33 0 0 1-65.9.28c-.16-19.25-.24-35.15-.24-47.25 0-27.16.24-27.5 1.5-29.41a6 6 0 0 1 10.83 4.76c-.18 1.92-.58 12.64-.09 71.8a21 21 0 0 0 41.9-.18v-73.07a6 6 0 0 1 12 0Zm-47.61-114.12c-27.65 0-50.14-25.12-50.14-56s22.49-56 50.14-56 50.15 25.12 50.15 56-22.46 56-50.15 56Zm122.33 47.05h-22.21v94a6 6 0 0 1-12 0v-94h-22.21a6 6 0 1 1 0-12h56.42a6 6 0 0 1 0 12Zm9.1-60V76.85a13 13 0 0 1 13-13h3.16a56 56 0 0 1 0 112h-3.16a13 13 0 0 1-13-12.95Zm66.14 165a60.94 60.94 0 1 1 60.93-60.94 60.94 60.94 0 0 1-60.93 60.88Z" fill="#D94B38" class="color000 svgShape"></path><path d="M424.61 240.2a10.88 10.88 0 0 0-15.37 0l-28.6 28.6a4.84 4.84 0 0 1-6.86 0l-9.27-9.26a10.88 10.88 0 0 0-15.37 0 10.88 10.88 0 0 0 0 15.37l17.62 17.62a14.74 14.74 0 0 0 20.84 0l37-37a10.87 10.87 0 0 0 .01-15.33Z" fill="#D94B38" class="color000 svgShape"></path></g></svg>