<svg width="20" height="20" viewBox="0 0 20 20" fill="none" xmlns="http://www.w3.org/2000/svg">
<path d="M6.99153 0.714286C6.99153 0.524845 7.07077 0.343164 7.21182 0.209209C7.35287 0.0752549 7.54417 0 7.74365 0C7.94312 0 8.13442 0.0752549 8.27547 0.209209C8.41652 0.343164 8.49576 0.524845 8.49576 0.714286V18.2757C8.49573 18.4169 8.45166 18.5549 8.36911 18.6723C8.28655 18.7897 8.16923 18.8812 8.03194 18.9353C7.89465 18.9894 7.74356 19.0037 7.59774 18.9763C7.45192 18.9489 7.31792 18.8811 7.21265 18.7814L0.220963 12.1429C0.150921 12.0765 0.0953501 11.9977 0.0574337 11.9109C0.0195172 11.8241 0 11.7311 0 11.6371C0 11.5432 0.0195172 11.4502 0.0574337 11.3634C0.0953501 11.2766 0.150921 11.1978 0.220963 11.1314H0.223971C0.364953 10.998 0.5559 10.923 0.754967 10.923C0.954033 10.923 1.14498 10.998 1.28596 11.1314L6.99153 16.5543V0.714286ZM11.5042 1.72429C11.5046 1.58324 11.5489 1.44545 11.6315 1.32828C11.7142 1.2111 11.8315 1.11979 11.9688 1.06586C12.106 1.01193 12.2569 0.997786 12.4026 1.02522C12.5483 1.05265 12.6822 1.12042 12.7873 1.22L19.779 7.85714C19.8491 7.92349 19.9046 8.00232 19.9426 8.0891C19.9805 8.17587 20 8.2689 20 8.36286C20 8.45681 19.9805 8.54984 19.9426 8.63662C19.9046 8.7234 19.8491 8.80222 19.779 8.86857H19.776C19.635 9.00204 19.4441 9.07699 19.245 9.07699C19.046 9.07699 18.855 9.00204 18.714 8.86857L13.0085 3.44857V19.2857C13.0085 19.4752 12.9292 19.6568 12.7882 19.7908C12.6471 19.9247 12.4558 20 12.2564 20C12.0569 20 11.8656 19.9247 11.7245 19.7908C11.5835 19.6568 11.5042 19.4752 11.5042 19.2857V1.72429Z" fill="#888888"/>
</svg>
