<svg width="86" height="97" viewBox="0 0 86 97" fill="none" xmlns="http://www.w3.org/2000/svg">
<path d="M26.1739 44.7692C21.2155 44.7692 16.4602 42.8039 12.9541 39.3056C9.44797 35.8074 7.47826 31.0627 7.47826 26.1154V11.1923C7.47826 10.2028 7.8722 9.25391 8.57342 8.55426C9.27465 7.8546 10.2257 7.46154 11.2174 7.46154H14.9565C15.9482 7.46154 16.8993 7.06848 17.6005 6.36882C18.3017 5.66917 18.6956 4.72023 18.6956 3.73077C18.6956 2.74131 18.3017 1.79237 17.6005 1.09272C16.8993 0.393062 15.9482 0 14.9565 0H11.2174C8.24235 0 5.38916 1.17919 3.2855 3.27815C1.18183 5.37712 0 8.22392 0 11.1923V26.1154C0.00480635 30.3302 1.03489 34.4808 3.00177 38.2108C4.96866 41.9409 7.81356 45.1388 11.2922 47.53C14.6343 50.4699 17.3447 54.0551 19.2598 58.0691C21.1749 62.0831 22.255 66.4426 22.4348 70.8846C22.4348 77.8108 25.1924 84.4534 30.1009 89.351C35.0095 94.2486 41.6669 97 48.6087 97C55.5504 97 62.2079 94.2486 67.1164 89.351C72.025 84.4534 74.7826 77.8108 74.7826 70.8846V66.6315C78.3073 65.7235 81.3791 63.564 83.4222 60.5578C85.4653 57.5516 86.3394 53.9052 85.8808 50.302C85.4221 46.6987 83.662 43.3861 80.9306 40.985C78.1991 38.5839 74.6838 37.2593 71.0434 37.2593C67.4031 37.2593 63.8878 38.5839 61.1563 40.985C58.4249 43.3861 56.6648 46.6987 56.2061 50.302C55.7474 53.9052 56.6216 57.5516 58.6647 60.5578C60.7078 63.564 63.7796 65.7235 67.3043 66.6315V70.8846C67.3043 75.8319 65.3346 80.5766 61.8285 84.0749C58.3224 87.5732 53.5671 89.5385 48.6087 89.5385C43.6503 89.5385 38.895 87.5732 35.3889 84.0749C31.8827 80.5766 29.913 75.8319 29.913 70.8846C30.1023 66.4371 31.194 62.0742 33.1221 58.0599C35.0502 54.0456 37.7746 50.4634 41.1304 47.53C44.5952 45.1305 47.4256 41.9289 49.3791 38.1994C51.3327 34.4699 52.3514 30.3236 52.3478 26.1154V11.1923C52.3478 8.22392 51.166 5.37712 49.0623 3.27815C46.9586 1.17919 44.1055 0 41.1304 0H37.3913C36.3996 0 35.4485 0.393062 34.7473 1.09272C34.0461 1.79237 33.6522 2.74131 33.6522 3.73077C33.6522 4.72023 34.0461 5.66917 34.7473 6.36882C35.4485 7.06848 36.3996 7.46154 37.3913 7.46154H41.1304C42.1221 7.46154 43.0732 7.8546 43.7744 8.55426C44.4756 9.25391 44.8695 10.2028 44.8695 11.1923V26.1154C44.8695 28.565 44.386 30.9907 43.4464 33.2539C42.5069 35.5171 41.1298 37.5735 39.3937 39.3056C37.6577 41.0378 35.5967 42.4118 33.3284 43.3493C31.0602 44.2867 28.629 44.7692 26.1739 44.7692ZM71.0434 59.6923C69.0601 59.6923 67.158 58.9062 65.7555 57.5069C64.3531 56.1076 63.5652 54.2097 63.5652 52.2308C63.5652 50.2518 64.3531 48.354 65.7555 46.9547C67.158 45.5554 69.0601 44.7692 71.0434 44.7692C73.0268 44.7692 74.9289 45.5554 76.3314 46.9547C77.7338 48.354 78.5217 50.2518 78.5217 52.2308C78.5217 54.2097 77.7338 56.1076 76.3314 57.5069C74.9289 58.9062 73.0268 59.6923 71.0434 59.6923Z" fill="#264798"/>
</svg>
