<svg width="97" height="97" viewBox="0 0 97 97" fill="none" xmlns="http://www.w3.org/2000/svg">
<path d="M92.1318 72.75C90.0619 68.2386 86.6815 64.4551 82.4307 61.8923C78.18 59.3296 73.256 58.1063 68.3001 58.3819L48.4818 82.0256L28.5968 58.3819C23.6917 58.1881 18.8366 59.4299 14.6271 61.9553C10.4175 64.4806 7.03643 68.1795 4.8985 72.5984C2.24001 78.3115 0.583061 84.4389 0 90.7132L12.1068 90.9375V97H84.8568V90.9375H96.9818C96.4002 84.5175 94.71 78.247 91.9863 72.4044L92.1318 72.75Z" fill="#3CB43C"/>
<path d="M39.8127 52.9256C39.7051 54.0172 39.2395 55.0426 38.4883 55.842C37.7372 56.6414 36.7428 57.1699 35.6599 57.3452L48.4821 72.75L61.3346 57.4725C60.2494 57.3009 59.2511 56.7759 58.4947 55.979C57.7383 55.1821 57.2662 54.1578 57.1515 53.065C57.1515 49.3487 62.0015 50.5612 65.8209 44.2562C65.8209 44.0744 83.2808 0 48.4821 0C13.6834 0 31.1434 44.0744 31.1434 44.0744C34.9627 50.44 39.8734 49.2275 39.8127 52.9256Z" fill="#3CB43C"/>
</svg>
