<svg width="85" height="97" viewBox="0 0 85 97" fill="none" xmlns="http://www.w3.org/2000/svg">
<path d="M60.5127 60.6253L42.4371 78.6971L24.3616 60.6253C10.8177 61.2126 0 72.2955 0 85.972C0 88.8968 1.16187 91.7018 3.23002 93.77C5.29817 95.8381 8.10317 97 11.028 97H73.8463C76.7711 97 79.5761 95.8381 81.6443 93.77C83.7124 91.7018 84.8743 88.8968 84.8743 85.972C84.8743 72.2955 74.0566 61.2126 60.5127 60.6253ZM42.4371 57.5941C48.8686 57.5941 55.0366 55.0392 59.5843 50.4915C64.1321 45.9438 66.687 39.7757 66.687 33.3443V12.4705C66.6885 11.2353 66.3126 10.0291 65.6097 9.01335C64.9068 7.99761 63.9104 7.22082 62.7539 6.78695L46.6941 0.771867C43.9494 -0.257289 40.9249 -0.257289 38.1802 0.771867L22.1204 6.79453C20.9651 7.22795 19.9695 8.00358 19.2667 9.01781C18.564 10.032 18.1874 11.2366 18.1873 12.4705V33.3443C18.1873 39.7757 20.7422 45.9438 25.29 50.4915C29.8377 55.0392 36.0057 57.5941 42.4371 57.5941ZM34.8591 13.5788C34.8591 13.3276 34.9589 13.0866 35.1365 12.909C35.3142 12.7313 35.5551 12.6315 35.8063 12.6315H39.9118V8.52612C39.9118 8.27489 40.0116 8.03395 40.1892 7.85631C40.3668 7.67866 40.6078 7.57886 40.859 7.57886H44.0153C44.2665 7.57886 44.5075 7.67866 44.6851 7.85631C44.8627 8.03395 44.9625 8.27489 44.9625 8.52612V12.6315H49.068C49.3192 12.6315 49.5601 12.7313 49.7378 12.909C49.9154 13.0866 50.0152 13.3276 50.0152 13.5788V16.7351C50.0152 16.9863 49.9154 17.2272 49.7378 17.4049C49.5601 17.5825 49.3192 17.6823 49.068 17.6823H44.9625V21.7877C44.9625 22.039 44.8627 22.2799 44.6851 22.4575C44.5075 22.6352 44.2665 22.735 44.0153 22.735H40.859C40.6078 22.735 40.3668 22.6352 40.1892 22.4575C40.0116 22.2799 39.9118 22.039 39.9118 21.7877V17.6823H35.8063C35.5551 17.6823 35.3142 17.5825 35.1365 17.4049C34.9589 17.2272 34.8591 16.9863 34.8591 16.7351V13.5788ZM27.281 30.3131H57.5933V33.3443C57.5933 37.3639 55.9965 41.2189 53.1541 44.0613C50.3118 46.9036 46.4568 48.5004 42.4371 48.5004C38.4175 48.5004 34.5625 46.9036 31.7201 44.0613C28.8778 41.2189 27.281 37.3639 27.281 33.3443V30.3131Z" fill="#D94B38"/>
</svg>
