<svg width="89" height="97" viewBox="0 0 89 97" fill="none" xmlns="http://www.w3.org/2000/svg">
<path d="M32.963 9.48742C27.983 13.193 26.6449 19.0602 26.89 22.1825C27.2037 26.0008 27.9781 30.971 27.9781 30.971C27.9781 30.971 26.444 31.8043 26.444 35.1569C26.9782 43.5729 29.7917 39.9409 30.3701 43.6317C31.7622 52.5232 34.9433 50.94 34.9433 55.7925C34.9433 63.8752 31.6102 67.6543 21.2042 72.1344C10.7638 76.634 0 82.2953 0 92.0984V97H88.2282V92.0984C88.2282 82.2953 77.4595 76.634 67.0142 72.1393C56.6082 67.6592 53.2849 63.885 53.2849 55.7974C53.2849 50.9449 56.4563 52.5281 57.8532 43.6366C58.4365 39.9458 61.2451 43.5778 61.7892 35.1618C61.7892 31.8092 60.2501 30.9759 60.2501 30.9759C60.2501 30.9759 61.0245 26.0057 61.3333 22.1874C61.6519 18.1828 59.3825 9.63447 50.0597 7.01213C48.4275 5.3456 47.3246 2.69385 52.3438 0.0323007C41.3643 -0.482364 38.8106 5.26227 32.963 9.48742Z" fill="#A77127"/>
</svg>
