<svg width="79" height="92" viewBox="0 0 79 92" fill="none" xmlns="http://www.w3.org/2000/svg">
<path d="M73.6059 64.4765C67.9 53.6353 62.1941 55.3471 55.9176 54.7765C56.4882 56.4882 56.4882 58.2 56.4882 60.4824C65.6176 62.7647 67.9 73.6059 67.9 79.8824V85.5882H56.4882V79.8824H62.1941C62.1941 79.8824 62.1941 65.6177 53.6353 65.6177C45.0765 65.6177 45.0765 79.3118 45.0765 79.8824H50.7824V85.5882H39.3706V79.8824C39.3706 73.6059 41.6529 62.1941 50.7824 60.4824C50.7824 57.0588 50.2118 54.2059 49.6412 53.0647C48.5 52.4941 47.3588 51.3529 47.3588 49.6412C47.3588 46.2176 51.9235 47.3588 55.3471 41.0824C55.3471 41.0824 60.4823 27.9588 58.7706 16.5471H53.0647C53.0647 15.4059 53.6353 14.8353 53.6353 13.6941C53.6353 12.5529 53.6353 11.9824 53.0647 10.8412H57.6294C55.9176 5.13529 50.2118 0 39.3706 0C28.5294 0 22.8235 5.13529 20.5412 11.4118H25.1059C25.1059 12.5529 24.5353 13.1235 24.5353 14.2647C24.5353 15.4059 24.5353 15.9765 25.1059 17.1176H19.4C18.2588 28.5294 22.8235 41.6529 22.8235 41.6529C26.2471 47.3588 30.8118 46.2177 30.8118 50.2118C30.8118 53.0647 27.9588 54.2059 24.5353 54.7765C23.3941 55.9177 22.2529 58.2 22.2529 62.7647V69.6118C25.6765 70.7529 27.9588 74.1765 27.9588 77.6C27.9588 81.5941 23.9647 85.5882 19.4 85.5882C14.8353 85.5882 10.8412 81.5941 10.8412 77.0294C10.8412 73.0353 13.1235 70.1824 16.5471 69.0412V62.1941C16.5471 59.3412 17.1176 57.0588 17.6882 54.7765C13.6941 55.3471 9.12941 57.0588 5.13529 64.4765C1.71176 70.7529 0 91.2941 0 91.2941H78.1706C78.7412 91.2941 77.0294 70.7529 73.6059 64.4765ZM30.8118 14.2647C30.8118 9.7 34.8059 5.70588 39.3706 5.70588C43.9353 5.70588 47.9294 9.7 47.9294 14.2647C47.9294 18.8294 43.9353 22.8235 39.3706 22.8235C34.8059 22.8235 30.8118 18.8294 30.8118 14.2647Z" fill="#264798"/>
</svg>
