<svg width="95" height="97" viewBox="0 0 95 97" fill="none" xmlns="http://www.w3.org/2000/svg">
<path fill-rule="evenodd" clip-rule="evenodd" d="M73.132 22.9326C73.132 32.0262 70.8724 43.8864 67.3963 42.0866C65.9749 46.7285 62.9907 50.7354 58.9505 53.4269C54.9102 56.1184 50.063 57.3286 45.2317 56.852C40.4005 56.3754 35.8831 54.2414 32.4467 50.8124C29.0102 47.3833 26.8665 42.8705 26.3795 38.0404C22.9296 32.0051 18.4052 19.9111 30.0368 10.4838C30.247 10.4155 30.3732 9.84797 30.5623 9.01245C31.2822 5.85165 32.8771 -1.17412 42.9375 0.168503C50.6964 1.20109 73.132 5.2053 73.132 22.9326ZM63.132 28.6657C63.132 28.6657 61.9444 32.1391 63.0584 36.0093C63.044 40.136 61.412 44.0924 58.5129 47.0291C55.6139 49.9659 51.6789 51.6488 47.5528 51.7165C43.4267 51.7843 39.4386 50.2315 36.4446 47.3915C33.4507 44.5516 31.6897 40.6509 31.5397 36.527C31.9207 35.0819 31.9207 32.6357 31.9181 29.9163C31.9155 25.0109 31.9102 19.2227 34.1567 16.8632C49.8924 27.3441 63.132 28.6657 63.132 28.6657Z" fill="#3CB43C"/>
<path d="M18.392 81.2354C18.392 78.3925 19.8976 75.9017 22.1572 74.5144C22.0711 74.1874 21.9905 73.8589 21.9154 73.5291C21.5167 71.7341 21.2054 69.9208 20.9827 68.0956C20.7569 66.3468 20.621 64.5876 20.5754 62.825C9.48504 67.1786 0 74.7666 0 82.733V97H94.5877V82.733C94.5877 75.103 85.8909 67.8223 75.4126 63.3951V63.4687C75.4599 65.0714 75.3706 66.9106 75.1972 68.6789C75.0395 70.3184 74.8057 71.9527 74.5246 73.3531H76.1956C76.6834 73.3533 77.1615 73.4894 77.5764 73.746C77.9913 74.0026 78.3265 74.3697 78.5445 74.8061L81.172 80.0609C81.3559 80.4261 81.4505 80.8281 81.4505 81.2354V86.4903C81.4505 87.1871 81.1737 87.8554 80.6809 88.3481C80.1882 88.8409 79.5199 89.1177 78.8231 89.1177H73.5682V83.8628H76.1956V81.8555L74.5719 78.608H67.3096L65.6859 81.8555V83.8628H68.3133V89.1177H63.0584C62.3616 89.1177 61.6933 88.8409 61.2006 88.3481C60.7078 87.8554 60.431 87.1871 60.431 86.4903V81.2354C60.431 80.8281 60.5256 80.4261 60.7095 80.0609L63.337 74.8061C63.555 74.3697 63.8902 74.0026 64.3051 73.746C64.72 73.4894 65.1981 73.3533 65.6859 73.3531H69.141C69.1988 73.1271 69.2566 72.8775 69.3144 72.6016C69.5771 71.3641 69.811 69.7955 69.9686 68.1744C70.1263 66.5507 70.1998 64.94 70.1604 63.6158C70.1506 63.0672 70.1076 62.5197 70.0317 61.9763C69.9739 61.6032 69.916 61.4324 69.9055 61.3956C69.9029 61.3877 69.9003 61.3851 69.9055 61.3904L69.9134 61.3877C68.5193 60.9546 67.1091 60.5751 65.6859 60.2501C64.3643 59.9479 62.998 61.7661 62.4016 62.9038H31.5292C31.4525 62.7574 31.3772 62.6102 31.3033 62.4624C30.7462 61.3536 30.0605 59.9847 28.9018 60.2501C27.8902 60.4787 26.8787 60.7414 25.8671 61.0304C25.8345 61.4912 25.8205 61.9531 25.8251 62.4151C25.8356 63.868 25.9748 65.6468 26.1982 67.444C26.4215 69.2359 26.7236 70.9805 27.0389 72.3573C27.1283 72.754 27.2176 73.1114 27.3017 73.4188C28.8038 73.6162 30.2172 74.2424 31.3727 75.2224C32.5282 76.2023 33.3767 77.4945 33.8168 78.9443C34.2569 80.394 34.2698 81.9398 33.8541 83.3968C33.4384 84.8537 32.6116 86.1599 31.4727 87.1591C30.3338 88.1582 28.9311 88.808 27.4325 89.0306C25.9338 89.2532 24.4028 89.0392 23.0227 88.4142C21.6425 87.7892 20.4718 86.7797 19.6505 85.5065C18.8293 84.2333 18.3923 82.7505 18.392 81.2354Z" fill="#3CB43C"/>
<path d="M28.9018 81.2354C28.9018 82.7435 27.6879 83.9022 26.2744 83.9022C24.8608 83.9022 23.6469 82.7462 23.6469 81.2354C23.6469 79.7272 24.8608 78.5685 26.2744 78.5685C27.6879 78.5685 28.9018 79.7246 28.9018 81.2354Z" fill="#3CB43C"/>
</svg>
