<svg width="30" height="32" viewBox="0 0 30 32" fill="none" xmlns="http://www.w3.org/2000/svg">
<path d="M10.7181 3.87462C10.9422 3.32075 11.3266 2.84641 11.822 2.51242C12.3174 2.17843 12.9013 2 13.4988 2C14.0963 2 14.6802 2.17843 15.1756 2.51242C15.671 2.84641 16.0554 3.32075 16.2795 3.87462C18.4974 4.48458 20.4538 5.80575 21.8481 7.63523C23.2424 9.4647 23.9976 11.7013 23.9977 14.0016V21.0463L26.7454 25.1679C26.8961 25.3938 26.9827 25.6563 26.9958 25.9275C27.009 26.1987 26.9483 26.4684 26.8202 26.7079C26.6921 26.9473 26.5014 27.1474 26.2685 27.287C26.0355 27.4265 25.7691 27.5002 25.4975 27.5001H18.6958C18.5152 28.7497 17.8904 29.8923 16.936 30.7187C15.9816 31.5451 14.7613 32 13.4988 32C12.2363 32 11.0161 31.5451 10.0616 30.7187C9.10717 29.8923 8.48244 28.7497 8.30185 27.5001H1.50007C1.22853 27.5002 0.962078 27.4265 0.729135 27.287C0.496191 27.1474 0.305496 26.9473 0.177395 26.7079C0.0492938 26.4684 -0.0114074 26.1987 0.00176659 25.9275C0.0149406 25.6563 0.101496 25.3938 0.252198 25.1679L2.99991 21.0463V14.0016C2.99991 9.16606 6.26957 5.09249 10.7181 3.87462ZM11.378 27.5001C11.5329 27.9391 11.8202 28.3191 12.2001 28.588C12.5801 28.8568 13.0341 29.0012 13.4996 29.0012C13.965 29.0012 14.419 28.8568 14.799 28.588C15.179 28.3191 15.4662 27.9391 15.6211 27.5001H11.3765H11.378ZM13.4988 6.50234C11.5099 6.50234 9.60244 7.29244 8.19606 8.69881C6.78969 10.1052 5.99959 12.0126 5.99959 14.0016V21.5008C5.99966 21.797 5.91198 22.0867 5.74762 22.3332L4.30327 24.5005H22.6928L21.2485 22.3332C21.0847 22.0865 20.9975 21.7969 20.998 21.5008V14.0016C20.998 12.0126 20.2079 10.1052 18.8015 8.69881C17.3952 7.29244 15.4877 6.50234 13.4988 6.50234Z" fill="#0D1E27"/>
<circle cx="21.5" cy="8.5" r="7.5" fill="#15CADF" stroke="white" stroke-width="2"/>
</svg>
