<svg width="16" height="18" viewBox="0 0 16 18" fill="none" xmlns="http://www.w3.org/2000/svg">
<path d="M14.2673 0.36339C9.9321 -0.12113 5.55644 -0.12113 1.22127 0.36339C0.976329 0.390625 0.743237 0.483286 0.546451 0.631647C0.349665 0.780008 0.196439 0.978601 0.102852 1.20659C0.00926425 1.43457 -0.0212341 1.68354 0.0145567 1.92738C0.0503475 2.17121 0.151108 2.40092 0.306265 2.59239L4.07527 7.25139C5.15493 8.58605 5.74405 10.2507 5.74427 11.9674V15.1094C5.74418 15.2272 5.77184 15.3433 5.825 15.4484C5.87816 15.5535 5.95534 15.6447 6.05027 15.7144L8.82127 17.7464C8.90772 17.8098 9.01005 17.848 9.1169 17.8567C9.22375 17.8655 9.33094 17.8445 9.42656 17.796C9.52218 17.7475 9.60249 17.6735 9.65857 17.5821C9.71466 17.4907 9.74432 17.3856 9.74427 17.2784V11.9674C9.74453 10.2502 10.334 8.58519 11.4143 7.25039L15.1823 2.59039C15.3372 2.39891 15.4377 2.16929 15.4733 1.9256C15.509 1.68191 15.4784 1.43312 15.3849 1.2053C15.2913 0.977484 15.1382 0.779025 14.9415 0.630724C14.7449 0.482423 14.512 0.390741 14.2673 0.36339Z" fill="url(#paint0_linear_0_1057)"/>
<defs>
<linearGradient id="paint0_linear_0_1057" x1="-1.82209" y1="8.79198" x2="22.617" y2="8.80257" gradientUnits="userSpaceOnUse">
<stop stop-color="#2CD880"/>
<stop offset="0.494792" stop-color="#11CFD9"/>
</linearGradient>
</defs>
</svg>
