<svg width="15" height="15" viewBox="0 0 15 15" fill="none" xmlns="http://www.w3.org/2000/svg">
<path d="M10.9926 9.67361H10.2979L10.0517 9.4362C10.6012 8.7978 11.0029 8.04582 11.2278 7.23408C11.4528 6.42235 11.4956 5.57091 11.3531 4.74072C10.9398 2.29625 8.89983 0.344195 6.43777 0.0452311C5.5722 -0.0642724 4.69305 0.0256856 3.86759 0.308221C3.04213 0.590757 2.29224 1.05838 1.67531 1.67531C1.05838 2.29224 0.590757 3.04213 0.308221 3.86759C0.0256856 4.69305 -0.0642724 5.5722 0.0452311 6.43777C0.344195 8.89983 2.29625 10.9398 4.74072 11.3531C5.57091 11.4956 6.42235 11.4528 7.23408 11.2278C8.04582 11.0029 8.7978 10.6012 9.4362 10.0517L9.67361 10.2979V10.9926L13.4107 14.7296C13.7712 15.0901 14.3603 15.0901 14.7208 14.7296C15.0813 14.3691 15.0813 13.78 14.7208 13.4195L10.9926 9.67361ZM5.71674 9.67361C3.52728 9.67361 1.75987 7.90621 1.75987 5.71674C1.75987 3.52728 3.52728 1.75987 5.71674 1.75987C7.90621 1.75987 9.67361 3.52728 9.67361 5.71674C9.67361 7.90621 7.90621 9.67361 5.71674 9.67361Z" fill="#777777"/>
</svg>
