<svg width="21" height="12" viewBox="0 0 21 12" fill="none" xmlns="http://www.w3.org/2000/svg">
<path fill-rule="evenodd" clip-rule="evenodd" d="M0 0.75C0 0.551088 0.0790177 0.360322 0.21967 0.21967C0.360322 0.0790175 0.551088 0 0.75 0H8.75C8.94891 0 9.13968 0.0790175 9.28033 0.21967C9.42098 0.360322 9.5 0.551088 9.5 0.75C9.5 0.948912 9.42098 1.13968 9.28033 1.28033C9.13968 1.42098 8.94891 1.5 8.75 1.5H0.75C0.551088 1.5 0.360322 1.42098 0.21967 1.28033C0.0790177 1.13968 0 0.948912 0 0.75ZM0 5.75C0 5.55109 0.0790177 5.36032 0.21967 5.21967C0.360322 5.07902 0.551088 5 0.75 5H6.75C6.94891 5 7.13968 5.07902 7.28033 5.21967C7.42098 5.36032 7.5 5.55109 7.5 5.75C7.5 5.94891 7.42098 6.13968 7.28033 6.28033C7.13968 6.42098 6.94891 6.5 6.75 6.5H0.75C0.551088 6.5 0.360322 6.42098 0.21967 6.28033C0.0790177 6.13968 0 5.94891 0 5.75ZM0 10.75C0 10.5511 0.0790177 10.3603 0.21967 10.2197C0.360322 10.079 0.551088 10 0.75 10H8.75C8.94891 10 9.13968 10.079 9.28033 10.2197C9.42098 10.3603 9.5 10.5511 9.5 10.75C9.5 10.9489 9.42098 11.1397 9.28033 11.2803C9.13968 11.421 8.94891 11.5 8.75 11.5H0.75C0.551088 11.5 0.360322 11.421 0.21967 11.2803C0.0790177 11.1397 0 10.9489 0 10.75ZM15.75 10.75C17.0761 10.75 18.3479 10.2232 19.2855 9.28553C20.2232 8.34785 20.75 7.07608 20.75 5.75C20.75 4.42392 20.2232 3.15215 19.2855 2.21447C18.3479 1.27678 17.0761 0.75 15.75 0.75C14.4239 0.75 13.1521 1.27678 12.2145 2.21447C11.2768 3.15215 10.75 4.42392 10.75 5.75C10.75 7.07608 11.2768 8.34785 12.2145 9.28553C13.1521 10.2232 14.4239 10.75 15.75 10.75ZM16.5 3.75C16.5 3.55109 16.421 3.36032 16.2803 3.21967C16.1397 3.07902 15.9489 3 15.75 3C15.5511 3 15.3603 3.07902 15.2197 3.21967C15.079 3.36032 15 3.55109 15 3.75V5.596C15 5.776 15.065 5.951 15.183 6.087L16.183 7.241C16.2475 7.31546 16.326 7.37649 16.4141 7.42061C16.5021 7.46472 16.598 7.49106 16.6963 7.49812C16.7945 7.50518 16.8932 7.49281 16.9866 7.46174C17.0801 7.43066 17.1665 7.38148 17.241 7.317C17.3155 7.25252 17.3765 7.17401 17.4206 7.08594C17.4647 6.99788 17.4911 6.90198 17.4981 6.80374C17.5052 6.7055 17.4928 6.60682 17.4617 6.51336C17.4307 6.41989 17.3815 6.33346 17.317 6.259L16.5 5.316V3.75Z" fill="url(#paint0_linear_0_1063)"/>
<defs>
<linearGradient id="paint0_linear_0_1063" x1="-2.44118" y1="5.66155" x2="30.3014" y2="5.69106" gradientUnits="userSpaceOnUse">
<stop stop-color="#2CD880"/>
<stop offset="0.494792" stop-color="#11CFD9"/>
</linearGradient>
</defs>
</svg>
