<svg width="60" height="44" viewBox="0 0 60 44" fill="none" xmlns="http://www.w3.org/2000/svg">
<path d="M31.7018 44V31.4286H40.1556L29.5883 18.8571L19.0211 31.4286H27.4749V44H16.9076V43.8952C16.5526 43.9162 16.2144 44 15.8509 44C11.647 44 7.61523 42.3444 4.64262 39.3974C1.67 36.4504 0 32.4534 0 28.2857C0 20.2232 6.15014 13.6526 14.0418 12.7516C14.7337 9.1658 16.6643 5.93107 19.5017 3.60381C22.339 1.27654 25.9057 0.00221263 29.5883 0C33.2714 0.00204354 36.8387 1.27622 39.6768 3.60343C42.5148 5.93064 44.4463 9.16546 45.1391 12.7516C53.0307 13.6526 59.1724 20.2232 59.1724 28.2857C59.1724 32.4534 57.5024 36.4504 54.5298 39.3974C51.5572 42.3444 47.5254 44 43.3215 44C42.9665 44 42.6241 43.9162 42.2648 43.8952V44H31.7018Z" fill="#162D80" fill-opacity="0.19"/>
</svg>
